<?xml version="1.0" encoding="UTF-8"?>
<svg width="41px" height="40px" viewBox="0 0 41 40" version="1.1" xmlns="http://www.w3.org/2000/svg" xmlns:xlink="http://www.w3.org/1999/xlink">
    <title>DM/icon/卡片超市 默认</title>
    <g id="界面设计" stroke="none" stroke-width="1" fill="none" fill-rule="evenodd" fill-opacity="0.8">
        <g id="换肤-一键换肤" transform="translate(-3640.000000, -25.000000)" fill="#FFFFFF" fill-rule="nonzero">
            <g id="编组-4" transform="translate(170.000000, 25.000000)">
                <g id="自定义组件库" transform="translate(3470.500000, 0.000000)">
                    <rect id="矩形" opacity="0" x="0" y="0" width="40" height="40"></rect>
                    <g id="编组" transform="translate(6.000000, 6.000000)">
                        <path d="M20.3155556,24.7600093 L20.3155556,9.54663274 L24.8888889,11.6169868 L24.8888889,7.47141866 L19.0213333,4.1342282 C17.4004444,5.97454295 15.7111111,7.03887991 14.182,7.22517937 L14,7.24785929 L13.818,7.22517937 C12.2888889,7.03887991 10.598,5.97454295 8.97866668,4.1342282 L3.11111112,7.47141866 L3.11111112,11.6186068 L7.68444444,9.54501274 L7.68444444,24.7600093 L20.3155556,24.7600093 Z M23.4266667,28 L4.57333332,28 L4.57333332,14.4892386 L0,16.5595927 L0,5.55010416 L9.758,0 L10.57,1.08053692 C11.8797778,2.82203195 13.1366667,3.76972924 14,3.97546866 C14.8648889,3.76972924 16.1202222,2.82203195 17.43,1.08053692 L18.242,0 L28,5.55010416 L28,16.5595927 L23.4266667,14.4892386 L23.4266667,28 Z" id="形状"></path>
                    </g>
                </g>
            </g>
        </g>
    </g>
</svg>