<?xml version="1.0" encoding="UTF-8"?>
<svg width="27px" height="30px" viewBox="0 0 27 30" version="1.1" xmlns="http://www.w3.org/2000/svg" xmlns:xlink="http://www.w3.org/1999/xlink">
    <title>icon-zhtkpcs</title>
    <g id="新页面" stroke="none" stroke-width="1" fill="none" fill-rule="evenodd" fill-opacity="0.8">
        <g id="1-国家税务总局指挥端-0919备份-4" transform="translate(-3706.000000, -30.000000)" fill="#FFFFFF" fill-rule="nonzero">
            <g id="编组-4" transform="translate(170.500000, 25.000000)">
                <g id="自定义组件库" transform="translate(3529.500000, 0.000000)">
                    <rect id="矩形" opacity="0" x="0" y="0" width="40" height="40"></rect>
                    <path d="M32.5,12.501875 L32.5,27.498125 L28.7221081,25.3398693 L28.748125,25.325 L28.748125,21.0359315 L28.75,14.6746044 L23.125,11.4611223 L23.125,11.4631786 L19.375,9.32 L19.375,5 L32.5,12.501875 L32.5,12.501875 Z M25.9375,16.2528125 L25.9375,31.2490625 L22.1596081,29.0908068 L22.185625,29.0759375 L22.185625,24.786869 L22.1875,18.4255419 L16.5625,15.2120598 L16.5625,15.2141161 L12.8125,13.0709375 L12.8125,8.7509375 L25.9375,16.2528125 L25.9375,16.2528125 Z M6.25,27.501875 L6.25,12.501875 L19.375,20 L19.375,35 L6.25,27.501875 Z M10,18.9629973 L10,25.3253956 L15.625,28.5388777 L15.625,22.1764795 L10,18.9629973 Z" id="形状" transform="translate(19.375000, 20.000000) scale(-1, 1) translate(-19.375000, -20.000000) "></path>
                </g>
            </g>
        </g>
    </g>
</svg>